<svg viewBox="0 0 64 64" fill="#3b2e58" xmlns="http://www.w3.org/2000/svg">
    <path d="M32 0C14.3552 0 0 14.3552 0 32C0 49.6448 14.3552 64 32 64C49.6448 64 64 49.6448 64 32C64 14.3552 49.6448 0 32 0ZM32 58.1818C17.5632 58.1818 5.81818 46.4367 5.81818 32C5.81818 17.5633 17.5632 5.81818 32 5.81818C46.4368 5.81818 58.1818 17.5633 58.1818 32C58.1818 46.4367 46.4367 58.1818 32 58.1818Z" />
    <path d="M35.9484 32.0127L44.6469 23.3185C45.739 22.2264 45.739 20.4643 44.6469 19.3722C43.5548 18.2801 41.7926 18.2801 40.7006 19.3722L32.0021 28.0664L23.3058 19.3701C22.2137 18.278 20.4516 18.278 19.3595 19.3701C18.2674 20.4622 18.2674 22.2243 19.3595 23.3164L28.0579 32.0106L19.3595 40.7048C18.2674 41.7969 18.2674 43.559 19.3595 44.6511C20.4537 45.7432 22.2222 45.7432 23.3058 44.6511L32.0042 35.9569L40.7027 44.6511C41.7948 45.7432 43.5569 45.7432 44.649 44.6511C45.7326 43.559 45.7326 41.7969 44.6384 40.7027L35.9484 32.0127Z" />
</svg>
