<svg width="64" height="64" viewBox="0 0 64 64" fill="none" xmlns="http://www.w3.org/2000/svg">
<g clip-path="url(#clip0_36_4)">
<path d="M40.7557 6.60467C42.4164 7.24278 43.2727 9.1813 42.6683 10.9345L27.3458 55.3764C26.7413 57.1295 24.905 58.0335 23.2443 57.3954C21.5836 56.7573 20.7273 54.8187 21.3317 53.0656L36.6542 8.6237C37.2587 6.87051 39.095 5.96656 40.7557 6.60467ZM7.72548 32.8197L19.0392 44.7633C20.2889 46.0825 20.2889 48.2214 19.0392 49.5407C17.7895 50.8599 15.7634 50.8599 14.5137 49.5407L0.937258 35.2084C-0.312419 33.8892 -0.312419 31.7502 0.937258 30.431L14.5137 16.0987C15.7634 14.7795 17.7895 14.7795 19.0392 16.0987C20.2889 17.418 20.2889 19.5569 19.0392 20.8761L7.72548 32.8197ZM56.2745 32.8197L44.9608 20.8761C43.7111 19.5569 43.7111 17.418 44.9608 16.0987C46.2105 14.7795 48.2366 14.7795 49.4863 16.0987L63.0627 30.431C64.3124 31.7502 64.3124 33.8892 63.0627 35.2084L49.4863 49.5407C48.2366 50.8599 46.2105 50.8599 44.9608 49.5407C43.7111 48.2214 43.7111 46.0825 44.9608 44.7633L56.2745 32.8197Z" fill="#181818"/>
</g>
<defs>
<clipPath id="clip0_36_4">
<rect width="64" height="64" fill="white"/>
</clipPath>
</defs>
</svg>
