<svg viewBox="0 0 64 64" fill="#3b2e58" xmlns="http://www.w3.org/2000/svg">
    <path d="M58.9255 5.06956C58.9088 5.05316 58.8921 5.03676 58.875 5.02068C52.7439 -1.06454 42.9715 -1.69245 36.1173 3.56376C35.4314 4.08833 34.8786 4.56533 34.378 5.06464C34.3635 5.07908 34.3494 5.09351 34.3353 5.10828L23.3659 16.079C22.405 17.0399 22.405 18.5979 23.3662 19.5584C24.3274 20.5196 25.8854 20.5193 26.8456 19.5581L37.8557 8.54637C37.8672 8.53488 37.8784 8.5234 37.8899 8.51192C38.2255 8.18058 38.6132 7.84923 39.1086 7.47065C44.0322 3.69531 51.0537 4.15788 55.4425 8.54702C55.4569 8.56146 55.4717 8.57589 55.4865 8.59C60.2932 13.4407 60.2798 21.2998 55.4458 26.1357L44.4363 37.1465C43.4754 38.1074 43.4754 39.6654 44.4367 40.6259C44.9173 41.1062 45.5468 41.3463 46.1764 41.3463C46.8059 41.3463 47.4358 41.1062 47.9164 40.6256L58.9262 29.6148C65.6915 22.8466 65.6915 11.8355 58.9255 5.06956Z" />
    <path d="M37.1465 44.4318L26.143 55.4356C26.1213 55.4576 26.0996 55.4802 26.0787 55.5029C24.8622 56.6997 23.4348 57.6186 21.8319 58.2366C17.2407 60.0141 12.0268 58.9157 8.55161 55.4402C3.70679 50.5902 3.70679 42.6983 8.55161 37.8499L19.5604 26.8453C20.0216 26.3838 20.2811 25.7578 20.2811 25.105V25.1007C20.2811 23.7415 19.1798 22.6422 17.8207 22.6422C17.1203 22.6422 16.4881 22.9358 16.04 23.4059L5.0712 34.3704C-1.69016 41.1377 -1.69082 52.1498 5.07054 58.9187C8.38233 62.2311 12.822 63.9967 17.3437 63.9967C19.4479 63.9964 21.5704 63.6139 23.6044 62.8269C25.8753 61.9519 27.8981 60.6387 29.6165 58.9242C29.6414 58.8996 29.6657 58.874 29.6896 58.8481L40.6262 47.9115C41.5871 46.9503 41.5871 45.3927 40.6259 44.4318C39.6657 43.4712 38.1077 43.4712 37.1465 44.4318Z" />
    <path d="M19.4049 44.5863C19.8855 45.0669 20.515 45.3071 21.1449 45.3071C21.7745 45.3071 22.4044 45.0669 22.8846 44.5866L44.5905 22.8817C45.5518 21.9208 45.5518 20.3629 44.5909 19.4023C43.63 18.4411 42.072 18.4414 41.1114 19.402L19.4055 41.1069C18.444 42.0674 18.444 43.6254 19.4049 44.5863Z" />
</svg>