<svg width="64" height="64" viewBox="0 0 64 64" fill="none" xmlns="http://www.w3.org/2000/svg">
<path fill-rule="evenodd" clip-rule="evenodd" d="M32 9.43589C19.5382 9.43589 9.43589 19.5382 9.43589 32C9.43589 44.4619 19.5382 54.564 32 54.564C44.4619 54.564 54.564 44.4619 54.564 32C54.564 19.5382 44.4619 9.43589 32 9.43589ZM5.33333 32C5.33333 17.2724 17.2724 5.33333 32 5.33333C46.7275 5.33333 58.6667 17.2724 58.6667 32C58.6667 46.7275 46.7275 58.6667 32 58.6667C17.2724 58.6667 5.33333 46.7275 5.33333 32Z" fill="#3B2E58"/>
<path fill-rule="evenodd" clip-rule="evenodd" d="M32 20.3761C33.1328 20.3761 34.0512 21.2945 34.0512 22.4274V33.3675C34.0512 34.5005 33.1328 35.4189 32 35.4189C30.8672 35.4189 29.9488 34.5005 29.9488 33.3675V22.4274C29.9488 21.2945 30.8672 20.3761 32 20.3761Z" fill="#3B2E58"/>
<path d="M34.7349 41.5725C34.7349 43.0832 33.5104 44.3077 32 44.3077C30.4896 44.3077 29.2651 43.0832 29.2651 41.5725C29.2651 40.0621 30.4896 38.8376 32 38.8376C33.5104 38.8376 34.7349 40.0621 34.7349 41.5725Z" fill="#3B2E58"/>
</svg>
