<svg viewBox="0 0 64 64" fill="#3b2e58" xmlns="http://www.w3.org/2000/svg">
    <path d="M32 0C14.3552 0 0 14.3552 0 32C0 49.6448 14.3552 64 32 64C49.6448 64 64 49.6448 64 32C64 14.3552 49.6448 0 32 0ZM32 58.1818C17.5632 58.1818 5.81818 46.4367 5.81818 32C5.81818 17.5633 17.5632 5.81818 32 5.81818C46.4368 5.81818 58.1818 17.5633 58.1818 32C58.1818 46.4367 46.4367 58.1818 32 58.1818Z" />
    <path d="M43.9994 20.6863L27.5429 37.1427L20.0006 29.6002C18.8647 28.4643 17.0227 28.4641 15.8866 29.6C14.7505 30.7361 14.7505 32.5779 15.8866 33.714L25.4858 43.3136C26.0313 43.8592 26.7712 44.1658 27.5427 44.1658C27.5429 44.1658 27.5427 44.1658 27.5429 44.1658C28.3144 44.1658 29.0543 43.8592 29.5998 43.3138L48.1135 24.8006C49.2496 23.6645 49.2496 21.8226 48.1135 20.6865C46.9774 19.5504 45.1355 19.5502 43.9994 20.6863Z" />
</svg>