<svg viewBox="0 0 64 64" fill="#181818" xmlns="http://www.w3.org/2000/svg">
  <path d="M44.4555 53.257V31.0724L45.819 33.1399C44.2892 34.212 42.4158 35.0871 40.1988 35.7653C37.9817 36.4217 35.4764 36.7498 32.6829 36.7498C28.537 36.7498 25.2114 35.995 22.7061 34.4854C20.223 32.9759 18.4272 30.8974 17.3186 28.2502C16.2101 25.581 15.6558 22.529 15.6558 19.0941V6H20.5777V17.4204C20.5777 19.6083 20.7883 21.5992 21.2096 23.3932C21.6308 25.1872 22.3292 26.7296 23.3047 28.0204C24.2802 29.3112 25.5772 30.3067 27.1957 31.0068C28.8141 31.685 30.8095 32.0241 33.1817 32.0241C36.1304 32.0241 38.669 31.5866 40.7974 30.7115C42.9258 29.8144 44.4888 28.8518 45.4865 27.8235L44.4555 31.696V6H49.3442V53.257H44.4555Z" />
  <path d="M11 56.5H32.6829H54V59H11V56.5Z" />
  <path d="M11 56.5H32.6829H54V59H11V56.5Z" />
</svg>